<?xml version="1.0" encoding="UTF-8"?>
<!-- Generator: visioncortex VTracer 0.6.4 -->
<svg version="1.1" xmlns="http://www.w3.org/2000/svg" width="250" height="250">
<path d="M0 0 C82.5 0 165 0 250 0 C250 82.5 250 165 250 250 C167.5 250 85 250 0 250 C0 167.5 0 85 0 0 Z " fill="#0E2430" transform="translate(0,0)"/>
<path d="M0 0 C2.88 1.5 2.88 1.5 5 4 C5.87 10.63 5.87 10.63 3.93 13.69 C2.45 15.3 0.9 16.75 -0.75 18.19 C-1.83 19.18 -2.91 20.17 -3.98 21.17 C-4.5 21.64 -5.02 22.12 -5.56 22.6 C-7.59 24.57 -9.26 26.79 -11 29 C-12.24 30.16 -13.51 31.29 -14.81 32.38 C-19.98 36.81 -24.74 41.49 -29.16 46.66 C-33.2 51.29 -37.47 55.66 -41.81 60 C-42.57 60.77 -43.34 61.55 -44.12 62.35 C-44.85 63.08 -45.58 63.81 -46.33 64.56 C-46.99 65.22 -47.65 65.89 -48.32 66.57 C-50 68 -50 68 -52 68 C-49.26 70.93 -46.59 72.98 -43.12 75 C-36.42 79.16 -30.64 84.22 -24.76 89.44 C-23.54 90.52 -22.32 91.59 -21.08 92.65 C-16.1 96.95 -11.39 101.46 -6.75 106.12 C-6.06 106.81 -5.36 107.5 -4.65 108.21 C4.68 117.56 4.68 117.56 5.81 122.62 C5.39 129.12 0.27 133.53 -4 138 C-4.6 138.63 -5.2 139.26 -5.82 139.91 C-13.76 148.17 -21.85 156.08 -31 163 C-31.55 163.43 -32.11 163.85 -32.68 164.29 C-63.1 187.58 -95.98 201.1 -134.94 196.67 C-144.14 195.29 -152.79 192.69 -161.34 189.05 C-164.03 187.99 -166.11 187.22 -169 187 C-171.32 188.44 -171.32 188.44 -173.4 190.71 C-174.24 191.54 -175.08 192.38 -175.94 193.24 C-176.84 194.16 -177.73 195.08 -178.65 196.03 C-179.59 196.97 -180.53 197.92 -181.47 198.87 C-183.95 201.36 -186.41 203.88 -188.87 206.4 C-190.86 208.43 -192.86 210.45 -194.86 212.47 C-206.53 224.15 -206.53 224.15 -217.6 236.39 C-221.24 240.58 -224.95 244.24 -230.19 246.19 C-233.92 245.94 -235.39 244.61 -238 242 C-239.51 238.98 -239.5 237.38 -239 234 C-233.96 226.85 -227 220.87 -220.82 214.72 C-219.75 213.65 -218.68 212.59 -217.62 211.52 C-214.84 208.75 -212.05 205.97 -209.27 203.2 C-206.42 200.36 -203.57 197.52 -200.72 194.67 C-195.15 189.11 -189.58 183.55 -184 178 C-185.88 176.59 -187.76 175.17 -189.64 173.76 C-190.68 172.97 -191.73 172.19 -192.81 171.38 C-195.79 169.16 -198.79 166.98 -201.81 164.81 C-209.4 159.12 -216.18 152.58 -223 146 C-223.76 145.28 -223.76 145.28 -224.53 144.54 C-228.92 140.33 -233.17 136 -237.12 131.38 C-237.68 130.72 -238.24 130.07 -238.82 129.4 C-240.55 125.89 -240.87 122.76 -240 119 C-238.31 116.21 -236.15 114.07 -233.81 111.81 C-233.18 111.17 -232.54 110.53 -231.89 109.86 C-230.58 108.54 -229.26 107.22 -227.93 105.91 C-226.14 104.14 -224.4 102.35 -222.67 100.53 C-215.82 93.39 -208.54 87.12 -200.62 81.21 C-199.14 80.11 -197.69 78.98 -196.23 77.86 C-189.16 72.48 -181.6 68.17 -173.79 63.96 C-172.31 63.16 -170.83 62.35 -169.35 61.53 C-164.28 58.83 -159.01 56.78 -153.62 54.81 C-152.95 54.56 -152.28 54.31 -151.59 54.05 C-126.73 45.3 -96.81 48.07 -73.1 58.93 C-69.67 60.11 -68.41 60.06 -65 59 C-63.31 57.58 -63.31 57.58 -61.91 55.67 C-57.12 49.86 -51.77 44.63 -46.45 39.32 C-45.34 38.21 -44.24 37.1 -43.13 35.99 C-40.83 33.69 -38.52 31.39 -36.22 29.09 C-33.26 26.14 -30.31 23.18 -27.36 20.23 C-25.08 17.95 -22.81 15.67 -20.53 13.39 C-19.44 12.3 -18.35 11.21 -17.26 10.12 C-15.74 8.6 -14.22 7.09 -12.71 5.58 C-11.84 4.71 -10.98 3.85 -10.09 2.96 C-6.74 -0.18 -4.56 -0.45 0 0 Z " fill="#05E0E0" transform="translate(243,3)"/>
<path d="M0 0 C0.72 0.23 1.45 0.46 2.19 0.7 C3.94 1.25 5.69 1.81 7.44 2.38 C5.51 6.67 2.81 9.15 -0.56 12.38 C-5.97 10.62 -11.25 8.58 -16.54 6.5 C-28.7 1.99 -40.89 4.48 -52.65 9.21 C-63.58 14.78 -72 25.22 -76.23 36.57 C-77.83 41.63 -78.06 46.41 -78 51.69 C-77.99 52.61 -77.99 53.53 -77.98 54.47 C-77.79 63.18 -75.79 70.21 -71.69 77.88 C-70.56 80.38 -70.56 80.38 -71.19 82.2 C-72.98 85.04 -75.1 87.29 -77.44 89.69 C-78.3 90.59 -79.16 91.49 -80.05 92.43 C-82.56 94.38 -82.56 94.38 -84.57 94.35 C-99.29 87.12 -111.82 75.62 -123.56 64.38 C-124.94 63.08 -124.94 63.08 -126.34 61.75 C-127.16 60.97 -127.97 60.18 -128.81 59.38 C-129.87 58.35 -129.87 58.35 -130.95 57.31 C-132.73 55.18 -133.33 54.13 -133.56 51.38 C-132.2 49.41 -132.2 49.41 -130.11 47.36 C-129.35 46.61 -128.59 45.86 -127.81 45.08 C-126.99 44.29 -126.16 43.5 -125.31 42.69 C-124.48 41.88 -123.65 41.06 -122.79 40.23 C-89.44 8 -46.82 -15.09 0 0 Z " fill="#0E2833" transform="translate(155.5625,73.625)"/>
<path d="M0 0 C4.3 0.56 7.56 3.12 11.06 5.5 C11.73 5.95 12.4 6.4 13.08 6.86 C23.52 14 32.81 22.36 42 31 C42.92 31.84 43.84 32.69 44.79 33.56 C46.04 34.74 46.04 34.74 47.31 35.94 C48.05 36.63 48.79 37.32 49.55 38.03 C51 40 51 40 50.78 41.91 C49.88 44.33 48.83 45.54 47.01 47.36 C46.39 47.97 45.77 48.59 45.14 49.23 C44.47 49.87 43.81 50.52 43.12 51.19 C42.1 52.19 42.1 52.19 41.06 53.22 C35.63 58.5 30.03 63.41 24 68 C23.45 68.43 22.9 68.85 22.33 69.29 C4.4 83.17 -15.38 94.35 -38 98 C-39.1 98.18 -40.21 98.36 -41.35 98.55 C-58.27 100.63 -74.2 98.19 -90 92 C-88.47 88.01 -85.58 84.35 -82 82 C-78.49 82.27 -75.96 84.22 -73 86 C-59.89 91.46 -47.41 91.8 -34.22 86.48 C-25.29 82.38 -19.02 77.84 -13 70 C-12.52 69.37 -12.03 68.75 -11.54 68.1 C-4.54 58.02 -2.74 46.01 -4 34 C-5.3 27.9 -7.06 22.25 -10.38 16.94 C-10.91 15.97 -11.45 15 -12 14 C-10.76 10.14 -7.9 7.53 -5.12 4.69 C-4.26 3.78 -3.4 2.88 -2.51 1.95 C-1.27 0.98 -1.27 0.98 0 0 Z " fill="#0E2732" transform="translate(178,85)"/>
<path d="M0 0 C-2.69 5.49 -2.69 5.49 -5 7 C-8.19 6.69 -8.19 6.69 -12 6 C-15.96 5.59 -19.04 5.37 -22.5 7.62 C-24.46 10.72 -24.6 12.4 -24 16 C-22.12 18.38 -22.12 18.38 -20 20 C-21.56 23.77 -23.91 26.14 -26.79 28.98 C-27.25 29.44 -27.72 29.91 -28.19 30.38 C-29.67 31.84 -31.15 33.3 -32.62 34.75 C-33.63 35.74 -34.63 36.74 -35.63 37.73 C-38.08 40.16 -40.54 42.58 -43 45 C-46 44 -46 44 -47.69 40.88 C-50.58 32.19 -50.32 22.77 -46.44 14.5 C-35.95 -3.71 -18.82 -7.36 0 0 Z " fill="#0E2A36" transform="translate(142,97)"/>
<path d="M0 0 C3.72 8.84 5.2 18.69 1.68 27.87 C-1.25 34.47 -4.7 40.27 -11 44 C-11.78 44.48 -12.56 44.96 -13.36 45.46 C-21.73 49.95 -30.74 50.46 -39.96 48.31 C-42.44 47.5 -42.44 47.5 -46 46 C-44.42 42.14 -41.94 39.71 -38.99 36.8 C-38.51 36.31 -38.02 35.83 -37.52 35.33 C-35.98 33.8 -34.43 32.28 -32.88 30.75 C-31.82 29.71 -30.77 28.67 -29.72 27.62 C-27.15 25.08 -24.58 22.54 -22 20 C-18.12 21.88 -18.12 21.88 -17 23 C-11.66 23.61 -11.66 23.61 -7 21.56 C-5.19 16.93 -5.41 11.99 -6.81 7.25 C-7 5 -7 5 -4.69 2.19 C-2 0 -2 0 0 0 Z " fill="#0E2834" transform="translate(155,110)"/>
<path d="M0 0 C0.33 0 0.66 0 1 0 C1.44 5.28 1.44 5.28 1 8 C-1.5 10.5 -1.5 10.5 -4 12 C-4.66 11.67 -5.32 11.34 -6 11 C-4.79 9.95 -4.79 9.95 -3.56 8.88 C-0.77 5.74 -0.29 4.11 0 0 Z " fill="#0C5059" transform="translate(248,9)"/>
<path d="M0 0 C1.32 0.99 2.64 1.98 4 3 C2.25 6.88 2.25 6.88 0 8 C0 5.36 0 2.72 0 0 Z " fill="#0D464F" transform="translate(118,114)"/>
<path d="M0 0 C0 0.33 0 0.66 0 1 C-1.98 1 -3.96 1 -6 1 C-6 1.66 -6 2.32 -6 3 C-8.31 2.67 -10.62 2.34 -13 2 C-13 1.67 -13 1.34 -13 1 C-8.59 -0.1 -4.52 -0.08 0 0 Z " fill="#0B6971" transform="translate(119,69)"/>
</svg>
